<svg id="Sale" xmlns="http://www.w3.org/2000/svg" width="957.273" height="351" viewBox="0 0 957.273 351">
  <path id="Shape" d="M957.273,176.612a72.843,72.843,0,0,0-20.291-50.6L841.1,26.752A84.327,84.327,0,0,0,779.972,1H48.052C21.556,1,0,23,0,50.366V302.612C0,330,21.556,352,48.052,352h731.92A84.345,84.345,0,0,0,841.1,326.226l95.881-99.263a72.265,72.265,0,0,0,20.291-50.351Zm-70.924,0c0,19.158-15.043,34.684-33.59,34.684s-33.59-15.526-33.59-34.684,15.043-34.684,33.59-34.684,33.59,15.526,33.59,34.684Z" transform="translate(0 -0.998)" fill="#ff6d4a" fill-rule="evenodd"/>
</svg>
