<svg xmlns="http://www.w3.org/2000/svg" width="17" height="20" viewBox="0 0 17 20">
    <defs>
        <style>
            .cls-1{fill:#4da1ff}
        </style>
    </defs>
    <g id="money-bag" transform="translate(-33.9)">
        <g id="Group_229" data-name="Group 229" transform="translate(33.9)">
            <path id="Path_186" d="M189.994 216.7h-1.143a.753.753 0 1 1 0-1.505h2.012a.5.5 0 0 0 0-1h-.944v-.695a.5.5 0 1 0-1 0v.694h-.071a1.751 1.751 0 1 0 0 3.5h1.143a.753.753 0 0 1 0 1.505h-2.05a.5.5 0 1 0 0 1h.981v.711a.5.5 0 1 0 1 0v-.71h.1a1.751 1.751 0 0 0-.025-3.5z" class="cls-1" data-name="Path 186" transform="translate(-180.822 -204.143)"/>
            <path id="Path_187" d="M49.921 11.422a14.328 14.328 0 0 0-2.139-3.468 16.008 16.008 0 0 0-2.74-2.632l2.1-3.933A.5.5 0 0 0 47.049.8a2.448 2.448 0 0 0-1.761-.8 4.107 4.107 0 0 0-1.6.424 3 3 0 0 1-1 .3.619.619 0 0 1-.235-.042A7.247 7.247 0 0 0 39.993.1a3.32 3.32 0 0 0-2.477 1.173.506.506 0 0 0-.058.624l2.263 3.455a16.277 16.277 0 0 0-2.7 2.6 14.457 14.457 0 0 0-2.139 3.468 11.9 11.9 0 0 0-.979 4.707A3.857 3.857 0 0 0 37.73 20h9.34a3.857 3.857 0 0 0 3.83-3.871 11.9 11.9 0 0 0-.979-4.707zM38.512 1.688a2.14 2.14 0 0 1 1.481-.6 6.355 6.355 0 0 1 2.119.528 1.656 1.656 0 0 0 .572.1 3.614 3.614 0 0 0 1.382-.378A3.31 3.31 0 0 1 45.284.99a1.3 1.3 0 0 1 .794.274L44.1 4.973h-3.436zM47.07 19h-9.34a2.862 2.862 0 0 1-2.843-2.873 11.7 11.7 0 0 1 2.868-7.514 15.163 15.163 0 0 1 2.794-2.644h3.695a14.877 14.877 0 0 1 2.794 2.644 11.667 11.667 0 0 1 2.862 7.516A2.849 2.849 0 0 1 47.07 19z" class="cls-1" data-name="Path 187" transform="translate(-33.9)"/>
        </g>
    </g>
</svg>
